Land_normalized_Motion_pl02
version=1
nRows=18
nColumns=43
inDegrees=yes
endheader
time		pelvis_tilt		pelvis_list		pelvis_rotation		pelvis_tx		pelvis_ty		pelvis_tz		hip_flexion_r		hip_adduction_r		hip_rotation_r		knee_angle_r		ankle_angle_r		subtalar_angle_r		mtp_angle_r		hip_flexion_l		hip_adduction_l		hip_rotation_l		knee_angle_l		ankle_angle_l		subtalar_angle_l		mtp_angle_l		lumbar_extension		lumbar_bending		lumbar_rotation		neck_flexion		neck_lateral_bending		neck_rotation		arm_flex_r		arm_add_r		arm_rot_r		elbow_flex_r		pro_sup_r		wrist_flex_r		wrist_dev_r		hand_finger_flex_r		arm_flex_l		arm_add_l		arm_rot_l		elbow_flex_l		pro_sup_l		wrist_flex_l		wrist_dev_l		hand_finger_flex_l		
3.709495		2.323641		-1.330875		93.587251		-0.059968		0.664256		0.495650		60.137960		-4.961365		-4.799085		-86.284041		2.853747		-5.391192		28.502515		61.505847		-3.202650		-2.297640		-86.663033		18.747579		-3.718688		20.755485		-34.788972		5.331509		3.079879		-9.923352		0.680607		-6.863605		-6.732426		-13.222623		-23.305102		64.327485		114.689644		-17.309947		-10.416275		-53.524548		-27.009242		-33.557607		-28.206789		106.972341		125.605798		-4.274325		-16.537143		-12.962618		
3.712475		2.162507		-1.568308		93.391634		-0.059951		0.655508		0.495635		62.094925		-4.927737		-4.257802		-88.623004		3.325879		-4.774101		28.564869		63.392607		-2.934633		-2.262718		-88.978700		17.034096		-4.987619		20.388927		-35.611030		4.968845		3.619819		-7.550112		1.396799		-6.601843		-4.758488		-13.312659		-23.796824		64.879251		114.156966		-17.593927		-10.695475		-53.964985		-23.357163		-34.340205		-26.425715		106.588240		126.137068		-5.254998		-17.054200		-13.295660		
3.715455		2.171589		-1.426456		93.072758		-0.059402		0.648076		0.495336		63.487635		-4.503594		-3.703310		-90.709555		3.315613		-4.452833		28.599245		64.612317		-2.887039		-2.013088		-91.026138		16.607125		-5.691584		20.260323		-36.695953		4.694880		3.892043		-6.411638		1.347608		-6.674996		-2.191675		-13.373052		-23.811320		64.884280		113.761558		-17.403580		-10.710270		-54.105977		-20.173662		-34.679153		-25.388817		106.476558		126.472326		-5.921139		-17.158745		-13.490062		
3.718434		2.078042		-1.238051		92.530852		-0.058940		0.640682		0.495038		64.894594		-3.921078		-2.915139		-92.764034		3.114938		-3.921183		28.661761		65.837372		-2.975686		-1.983299		-93.160338		15.491601		-6.743221		20.042663		-37.936279		4.206586		4.719293		-4.799463		1.844923		-6.919272		-0.339686		-13.474412		-24.312988		65.764781		113.042856		-17.427404		-11.024379		-54.670132		-16.473341		-35.315525		-23.426857		106.138268		127.181262		-7.264775		-17.287566		-13.747026		
3.721414		2.099898		-0.944839		92.131837		-0.058462		0.634027		0.494737		66.089053		-3.292354		-2.225886		-94.657639		2.822951		-3.658073		28.702788		66.813565		-2.973310		-1.651001		-95.038135		15.046550		-7.240256		19.964384		-39.228645		3.887237		5.057435		-3.569853		1.906532		-7.066412		2.107355		-13.563627		-24.314315		66.050424		112.550010		-17.169236		-11.084476		-55.015241		-13.272691		-35.640068		-22.162124		106.021889		127.565852		-8.108576		-17.202609		-13.793620		
3.724394		2.189344		-0.594451		91.753613		-0.058000		0.627536		0.494379		67.188166		-2.607611		-1.611874		-96.481887		2.407096		-3.296527		28.722099		67.799316		-3.091820		-1.343292		-96.963008		14.249193		-7.466261		19.935444		-40.651011		3.605037		5.356889		-1.953548		2.350320		-6.773106		4.437333		-13.719735		-24.111252		66.572065		112.212873		-17.102830		-11.120692		-55.444239		-10.250879		-35.948856		-21.141743		106.102279		127.746854		-8.748787		-17.064233		-13.791565		
3.727374		2.290418		-0.293437		91.474750		-0.057488		0.621340		0.493982		68.282880		-1.977265		-1.066967		-98.205749		2.052397		-2.955000		28.731872		68.728642		-3.081343		-0.903027		-98.678514		13.780998		-7.629753		19.939792		-41.964199		3.368579		5.411486		-0.641982		2.471979		-6.588068		7.016005		-13.832254		-23.668950		66.743955		111.949359		-16.902490		-11.048406		-55.708599		-7.405699		-36.210255		-20.336434		106.223383		127.837045		-9.165152		-16.917551		-13.779238		
3.730354		2.304685		0.190728		91.184203		-0.057312		0.615554		0.493508		69.125058		-1.507997		-0.546079		-99.865913		1.660058		-2.296509		28.737795		69.496756		-3.043913		-0.581619		-100.452172		12.679988		-7.752310		19.977578		-43.536586		3.017768		5.682995		1.085253		3.238924		-6.322790		9.134315		-14.089547		-23.261918		67.529010		111.408265		-16.984333		-11.013153		-56.508731		-4.249132		-36.607291		-18.952808		106.347108		127.828448		-9.986792		-16.546092		-13.715450		
3.733333		2.372822		0.538877		91.004376		-0.056818		0.609938		0.493065		70.041431		-1.089634		-0.162001		-101.402675		1.383217		-1.749685		28.733661		70.282197		-2.876741		0.010494		-101.941688		12.191228		-7.796890		20.071966		-44.899192		2.761144		5.641281		2.302751		3.512393		-6.182981		11.604579		-14.260725		-22.597228		67.844398		110.950155		-16.834792		-10.863692		-57.067955		-1.338042		-36.990334		-17.975673		106.476519		127.628106		-10.538304		-16.156248		-13.590802		
3.736313		2.427376		0.951985		90.825396		-0.056577		0.604518		0.492516		70.808924		-0.828775		0.133670		-102.855318		1.075525		-1.079152		28.724471		71.003321		-2.691608		0.548661		-103.483432		11.506003		-7.773167		20.211050		-46.319866		2.506026		5.651014		3.600338		4.065511		-6.015367		13.865108		-14.491943		-21.877018		68.452410		110.351643		-16.775500		-10.733175		-57.886735		1.641443		-37.418748		-16.732294		106.564027		127.276256		-11.272587		-15.617381		-13.394331		
3.739293		2.571147		1.118054		90.666376		-0.056356		0.598964		0.492052		71.749025		-0.632856		0.284422		-104.163972		0.578639		-0.576946		28.717926		71.912567		-2.627616		1.046414		-104.878861		11.092194		-7.573315		20.273771		-47.417279		2.377643		5.447043		4.609690		4.213446		-5.709887		16.451991		-14.739963		-20.855426		68.556514		110.206706		-16.412358		-10.638348		-58.037938		4.240921		-37.842564		-16.050236		106.687610		127.048822		-11.460115		-15.385936		-13.305832		
3.742273		2.735417		1.509052		90.744798		-0.056338		0.594148		0.491648		72.306995		-0.721186		0.241798		-105.355029		0.192520		0.181581		28.692903		72.577019		-2.289449		1.773306		-106.199395		10.211571		-7.027147		20.519083		-48.819195		2.299089		5.455682		5.770130		5.303125		-5.229572		18.571444		-15.228740		-19.830690		69.264052		109.482768		-16.460423		-10.324499		-59.025699		7.502116		-38.364359		-14.311435		106.795851		125.898391		-12.421831		-14.430747		-13.103491		
3.745253		2.926379		1.591823		90.575100		-0.055876		0.588919		0.491176		73.191638		-0.537113		0.302181		-106.453031		-0.242322		0.574075		28.681057		73.415944		-2.269427		2.328905		-107.390788		10.137281		-6.871086		20.659550		-49.774104		2.187812		5.278207		6.522161		5.299062		-5.095951		21.106990		-15.420721		-18.718768		69.419088		109.285065		-16.069339		-10.176507		-59.242946		10.159463		-38.882018		-13.406934		106.789364		125.418699		-12.693116		-14.050419		-12.973063		
3.748232		3.130282		1.796290		90.571810		-0.055847		0.584172		0.490763		73.818177		-0.600801		0.252728		-107.450826		-0.725339		1.116141		28.656130		74.111229		-2.032545		3.037579		-108.539515		9.744268		-6.216645		20.960389		-50.830705		2.149654		5.276869		7.059390		5.964907		-4.779311		23.286289		-15.986927		-17.457435		69.889048		108.882155		-15.796124		-9.863111		-59.896547		13.388180		-39.380393		-11.578815		106.629877		124.115844		-13.494411		-13.166161		-12.795654		
3.751212		3.315698		1.734785		90.361155		-0.055360		0.579155		0.490309		74.747318		-0.433327		0.305623		-108.387538		-1.076719		1.510254		28.649145		74.931678		-2.053801		3.543184		-109.533829		9.811102		-6.059040		21.075869		-51.582095		2.025397		5.069446		7.655333		5.866101		-4.613089		25.812200		-16.165995		-16.160632		69.978153		108.922935		-15.253657		-9.765125		-59.877292		16.005990		-39.922707		-10.682079		106.530045		123.744885		-13.566440		-12.911938		-12.722459		
3.754192		3.463557		1.825279		90.369315		-0.055109		0.574629		0.489957		75.437777		-0.484340		0.298760		-109.282488		-1.203839		2.244796		28.631692		75.534584		-1.846280		4.149747		-110.400826		9.840025		-5.288294		21.462071		-52.387706		1.911654		5.151059		7.588447		6.512224		-4.422492		27.839279		-16.750092		-14.993037		70.422750		108.870545		-14.861634		-9.323444		-60.317728		19.710676		-40.388714		-8.163618		105.990245		122.058757		-14.442159		-11.915527		-12.797956		
3.757172		3.621691		1.789200		90.162303		-0.054658		0.569613		0.489357		76.281861		-0.341500		0.371191		-110.195389		-1.370443		2.732356		28.622950		76.269308		-1.793998		4.663693		-111.422744		10.015190		-5.030952		21.683963		-53.034290		1.739055		5.058606		7.933065		6.573976		-4.365395		30.042253		-17.019464		-13.737466		70.762938		108.975831		-14.321648		-9.170096		-60.392504		22.614300		-40.845763		-6.659207		105.664593		121.284052		-14.742390		-11.484020		-12.792750		
3.760152		3.627914		1.761838		90.038233		-0.054950		0.565006		0.489123		77.092694		-0.438206		0.561506		-111.040696		-1.412086		3.749398		28.616730		76.856469		-1.594421		4.939274		-112.189573		10.178586		-4.646649		22.002610		-53.639058		1.542106		5.096352		7.515184		6.991464		-4.138559		32.086570		-17.933928		-12.373175		71.083727		109.416083		-13.470306		-8.908237		-60.302014		26.168670		-41.258300		-4.300496		104.995712		120.294691		-15.161264		-10.969515		-12.936538		
